<svg width="1363" height="163" viewBox="0 0 1363 163" fill="none" xmlns="http://www.w3.org/2000/svg">
<path d="M0 15C0 6.71573 6.71573 0 15 0H37V163H15C6.71573 163 0 156.284 0 148V15Z" fill="#FCC860"/>
<rect width="1097" height="163" transform="translate(37)" fill="#F0F0F0"/>
<path d="M101.906 53.9219L94.3945 51.2383V48.0859L104.602 52.375V54.6367L101.906 53.9219ZM94.3945 56.1719L101.918 53.4297L104.602 52.7852V55.0352L94.3945 59.3242V56.1719ZM118.137 61H114.422L114.445 58.2578H118.137C119.059 58.2578 119.836 58.0508 120.469 57.6367C121.102 57.2148 121.578 56.6016 121.898 55.7969C122.227 54.9922 122.391 54.0195 122.391 52.8789V52.0469C122.391 51.1719 122.297 50.4023 122.109 49.7383C121.93 49.0742 121.66 48.5156 121.301 48.0625C120.941 47.6094 120.5 47.2695 119.977 47.043C119.453 46.8086 118.852 46.6914 118.172 46.6914H114.352V43.9375H118.172C119.312 43.9375 120.355 44.1328 121.301 44.5234C122.254 44.9062 123.078 45.457 123.773 46.1758C124.469 46.8945 125.004 47.7539 125.379 48.7539C125.762 49.7461 125.953 50.8516 125.953 52.0703V52.8789C125.953 54.0898 125.762 55.1953 125.379 56.1953C125.004 57.1953 124.469 58.0547 123.773 58.7734C123.086 59.4844 122.262 60.0352 121.301 60.4258C120.348 60.8086 119.293 61 118.137 61ZM116.414 43.9375V61H112.898V43.9375H116.414ZM134.133 61.2344C133.148 61.2344 132.266 61.0781 131.484 60.7656C130.703 60.4453 130.039 60.0039 129.492 59.4414C128.953 58.8789 128.539 58.2266 128.25 57.4844C127.961 56.7344 127.816 55.9375 127.816 55.0938V54.625C127.816 53.6641 127.953 52.7852 128.227 51.9883C128.5 51.1914 128.891 50.5 129.398 49.9141C129.914 49.3281 130.539 48.8789 131.273 48.5664C132.008 48.2461 132.836 48.0859 133.758 48.0859C134.656 48.0859 135.453 48.2344 136.148 48.5312C136.844 48.8281 137.426 49.25 137.895 49.7969C138.371 50.3438 138.73 51 138.973 51.7656C139.215 52.5234 139.336 53.3672 139.336 54.2969V55.7031H129.258V53.4531H136.02V53.1953C136.02 52.7266 135.934 52.3086 135.762 51.9414C135.598 51.5664 135.348 51.2695 135.012 51.0508C134.676 50.832 134.246 50.7227 133.723 50.7227C133.277 50.7227 132.895 50.8203 132.574 51.0156C132.254 51.2109 131.992 51.4844 131.789 51.8359C131.594 52.1875 131.445 52.6016 131.344 53.0781C131.25 53.5469 131.203 54.0625 131.203 54.625V55.0938C131.203 55.6016 131.273 56.0703 131.414 56.5C131.562 56.9297 131.77 57.3008 132.035 57.6133C132.309 57.9258 132.637 58.168 133.02 58.3398C133.41 58.5117 133.852 58.5977 134.344 58.5977C134.953 58.5977 135.52 58.4805 136.043 58.2461C136.574 58.0039 137.031 57.6406 137.414 57.1562L139.055 58.9375C138.789 59.3203 138.426 59.6875 137.965 60.0391C137.512 60.3906 136.965 60.6797 136.324 60.9062C135.684 61.125 134.953 61.2344 134.133 61.2344ZM145.406 58.5391L148.219 48.3203H151.746L147.469 61H145.336L145.406 58.5391ZM143.473 48.3203L146.297 58.5508L146.355 61H144.211L139.934 48.3203H143.473ZM162.352 56.5352C162.352 56.2305 162.305 55.957 162.211 55.7148C162.125 55.4648 161.961 55.2383 161.719 55.0352C161.477 54.8242 161.137 54.6172 160.699 54.4141C160.262 54.2109 159.695 54 159 53.7812C158.227 53.5312 157.492 53.25 156.797 52.9375C156.109 52.625 155.5 52.2617 154.969 51.8477C154.445 51.4258 154.031 50.9375 153.727 50.3828C153.43 49.8281 153.281 49.1836 153.281 48.4492C153.281 47.7383 153.438 47.0938 153.75 46.5156C154.062 45.9297 154.5 45.4297 155.062 45.0156C155.625 44.5938 156.289 44.2695 157.055 44.043C157.828 43.8164 158.676 43.7031 159.598 43.7031C160.855 43.7031 161.953 43.9297 162.891 44.3828C163.828 44.8359 164.555 45.457 165.07 46.2461C165.594 47.0352 165.855 47.9375 165.855 48.9531H162.363C162.363 48.4531 162.258 48.0156 162.047 47.6406C161.844 47.2578 161.531 46.957 161.109 46.7383C160.695 46.5195 160.172 46.4102 159.539 46.4102C158.93 46.4102 158.422 46.5039 158.016 46.6914C157.609 46.8711 157.305 47.1172 157.102 47.4297C156.898 47.7344 156.797 48.0781 156.797 48.4609C156.797 48.75 156.867 49.0117 157.008 49.2461C157.156 49.4805 157.375 49.6992 157.664 49.9023C157.953 50.1055 158.309 50.2969 158.73 50.4766C159.152 50.6562 159.641 50.832 160.195 51.0039C161.125 51.2852 161.941 51.6016 162.645 51.9531C163.355 52.3047 163.949 52.6992 164.426 53.1367C164.902 53.5742 165.262 54.0703 165.504 54.625C165.746 55.1797 165.867 55.8086 165.867 56.5117C165.867 57.2539 165.723 57.918 165.434 58.5039C165.145 59.0898 164.727 59.5859 164.18 59.9922C163.633 60.3984 162.98 60.707 162.223 60.918C161.465 61.1289 160.617 61.2344 159.68 61.2344C158.836 61.2344 158.004 61.125 157.184 60.9062C156.363 60.6797 155.617 60.3398 154.945 59.8867C154.281 59.4336 153.75 58.8555 153.352 58.1523C152.953 57.4492 152.754 56.6172 152.754 55.6562H156.281C156.281 56.1875 156.363 56.6367 156.527 57.0039C156.691 57.3711 156.922 57.668 157.219 57.8945C157.523 58.1211 157.883 58.2852 158.297 58.3867C158.719 58.4883 159.18 58.5391 159.68 58.5391C160.289 58.5391 160.789 58.4531 161.18 58.2812C161.578 58.1094 161.871 57.8711 162.059 57.5664C162.254 57.2617 162.352 56.918 162.352 56.5352ZM171.668 57.7188L174.305 48.3203H176.449L175.758 52.0117L173.121 61H171.328L171.668 57.7188ZM170.332 48.3203L172.219 57.707L172.395 61H170.285L167.074 48.3203H170.332ZM178.863 57.5547L180.703 48.3203H183.973L180.762 61H178.664L178.863 57.5547ZM176.742 48.3203L179.367 57.6484L179.73 61H177.926L175.289 52.0234L174.621 48.3203H176.742ZM189.234 48.3203V61H185.848V48.3203H189.234ZM185.637 45.0156C185.637 44.5234 185.809 44.1172 186.152 43.7969C186.496 43.4766 186.957 43.3164 187.535 43.3164C188.105 43.3164 188.562 43.4766 188.906 43.7969C189.258 44.1172 189.434 44.5234 189.434 45.0156C189.434 45.5078 189.258 45.9141 188.906 46.2344C188.562 46.5547 188.105 46.7148 187.535 46.7148C186.957 46.7148 186.496 46.5547 186.152 46.2344C185.809 45.9141 185.637 45.5078 185.637 45.0156ZM195.398 50.7578V65.875H192.023V48.3203H195.152L195.398 50.7578ZM203.426 54.5195V54.7656C203.426 55.6875 203.316 56.543 203.098 57.332C202.887 58.1211 202.574 58.8086 202.16 59.3945C201.746 59.9727 201.23 60.4258 200.613 60.7539C200.004 61.0742 199.301 61.2344 198.504 61.2344C197.73 61.2344 197.059 61.0781 196.488 60.7656C195.918 60.4531 195.438 60.0156 195.047 59.4531C194.664 58.8828 194.355 58.2227 194.121 57.4727C193.887 56.7227 193.707 55.918 193.582 55.0586V54.4141C193.707 53.4922 193.887 52.6484 194.121 51.8828C194.355 51.1094 194.664 50.4414 195.047 49.8789C195.438 49.3086 195.914 48.8672 196.477 48.5547C197.047 48.2422 197.715 48.0859 198.48 48.0859C199.285 48.0859 199.992 48.2383 200.602 48.543C201.219 48.8477 201.734 49.2852 202.148 49.8555C202.57 50.4258 202.887 51.1055 203.098 51.8945C203.316 52.6836 203.426 53.5586 203.426 54.5195ZM200.039 54.7656V54.5195C200.039 53.9805 199.992 53.4844 199.898 53.0312C199.812 52.5703 199.672 52.168 199.477 51.8242C199.289 51.4805 199.039 51.2148 198.727 51.0273C198.422 50.832 198.051 50.7344 197.613 50.7344C197.152 50.7344 196.758 50.8086 196.43 50.957C196.109 51.1055 195.848 51.3203 195.645 51.6016C195.441 51.8828 195.289 52.2188 195.188 52.6094C195.086 53 195.023 53.4414 195 53.9336V55.5625C195.039 56.1406 195.148 56.6602 195.328 57.1211C195.508 57.5742 195.785 57.9336 196.16 58.1992C196.535 58.4648 197.027 58.5977 197.637 58.5977C198.082 58.5977 198.457 58.5 198.762 58.3047C199.066 58.1016 199.312 57.8242 199.5 57.4727C199.695 57.1211 199.832 56.7148 199.91 56.2539C199.996 55.793 200.039 55.2969 200.039 54.7656ZM211.359 61.2344C210.375 61.2344 209.492 61.0781 208.711 60.7656C207.93 60.4453 207.266 60.0039 206.719 59.4414C206.18 58.8789 205.766 58.2266 205.477 57.4844C205.188 56.7344 205.043 55.9375 205.043 55.0938V54.625C205.043 53.6641 205.18 52.7852 205.453 51.9883C205.727 51.1914 206.117 50.5 206.625 49.9141C207.141 49.3281 207.766 48.8789 208.5 48.5664C209.234 48.2461 210.062 48.0859 210.984 48.0859C211.883 48.0859 212.68 48.2344 213.375 48.5312C214.07 48.8281 214.652 49.25 215.121 49.7969C215.598 50.3438 215.957 51 216.199 51.7656C216.441 52.5234 216.562 53.3672 216.562 54.2969V55.7031H206.484V53.4531H213.246V53.1953C213.246 52.7266 213.16 52.3086 212.988 51.9414C212.824 51.5664 212.574 51.2695 212.238 51.0508C211.902 50.832 211.473 50.7227 210.949 50.7227C210.504 50.7227 210.121 50.8203 209.801 51.0156C209.48 51.2109 209.219 51.4844 209.016 51.8359C208.82 52.1875 208.672 52.6016 208.57 53.0781C208.477 53.5469 208.43 54.0625 208.43 54.625V55.0938C208.43 55.6016 208.5 56.0703 208.641 56.5C208.789 56.9297 208.996 57.3008 209.262 57.6133C209.535 57.9258 209.863 58.168 210.246 58.3398C210.637 58.5117 211.078 58.5977 211.57 58.5977C212.18 58.5977 212.746 58.4805 213.27 58.2461C213.801 58.0039 214.258 57.6406 214.641 57.1562L216.281 58.9375C216.016 59.3203 215.652 59.6875 215.191 60.0391C214.738 60.3906 214.191 60.6797 213.551 60.9062C212.91 61.125 212.18 61.2344 211.359 61.2344Z" fill="#888888"/>
<path d="M112.125 84.875V119H103.898V84.875H112.125ZM122.391 84.875V91.2266H93.8672V84.875H122.391ZM135.68 119.469C133.617 119.469 131.773 119.148 130.148 118.508C128.523 117.852 127.148 116.953 126.023 115.812C124.914 114.672 124.062 113.359 123.469 111.875C122.891 110.391 122.602 108.82 122.602 107.164V106.273C122.602 104.414 122.859 102.695 123.375 101.117C123.891 99.5234 124.656 98.1328 125.672 96.9453C126.688 95.7578 127.961 94.8359 129.492 94.1797C131.023 93.5078 132.805 93.1719 134.836 93.1719C136.633 93.1719 138.242 93.4609 139.664 94.0391C141.086 94.6172 142.289 95.4453 143.273 96.5234C144.273 97.6016 145.031 98.9062 145.547 100.438C146.078 101.969 146.344 103.688 146.344 105.594V108.805H125.625V103.859H138.633V103.25C138.648 102.406 138.5 101.688 138.188 101.094C137.891 100.5 137.453 100.047 136.875 99.7344C136.297 99.4219 135.594 99.2656 134.766 99.2656C133.906 99.2656 133.195 99.4531 132.633 99.8281C132.086 100.203 131.656 100.719 131.344 101.375C131.047 102.016 130.836 102.758 130.711 103.602C130.586 104.445 130.523 105.336 130.523 106.273V107.164C130.523 108.102 130.648 108.953 130.898 109.719C131.164 110.484 131.539 111.141 132.023 111.688C132.523 112.219 133.117 112.633 133.805 112.93C134.508 113.227 135.305 113.375 136.195 113.375C137.273 113.375 138.336 113.172 139.383 112.766C140.43 112.359 141.328 111.688 142.078 110.75L145.664 115.016C145.148 115.75 144.414 116.461 143.461 117.148C142.523 117.836 141.398 118.398 140.086 118.836C138.773 119.258 137.305 119.469 135.68 119.469ZM160.266 113.375C161 113.375 161.625 113.242 162.141 112.977C162.672 112.695 163.07 112.305 163.336 111.805C163.617 111.289 163.75 110.672 163.734 109.953H171.164C171.18 111.859 170.711 113.531 169.758 114.969C168.82 116.391 167.539 117.5 165.914 118.297C164.305 119.078 162.484 119.469 160.453 119.469C158.469 119.469 156.734 119.148 155.25 118.508C153.766 117.852 152.523 116.945 151.523 115.789C150.539 114.617 149.797 113.25 149.297 111.688C148.812 110.125 148.57 108.43 148.57 106.602V106.062C148.57 104.234 148.812 102.539 149.297 100.977C149.797 99.3984 150.539 98.0312 151.523 96.875C152.523 95.7031 153.758 94.7969 155.227 94.1562C156.711 93.5 158.438 93.1719 160.406 93.1719C162.516 93.1719 164.375 93.5703 165.984 94.3672C167.609 95.1641 168.883 96.3203 169.805 97.8359C170.727 99.3516 171.18 101.188 171.164 103.344H163.734C163.75 102.578 163.633 101.891 163.383 101.281C163.133 100.672 162.742 100.188 162.211 99.8281C161.695 99.4531 161.031 99.2656 160.219 99.2656C159.406 99.2656 158.75 99.4453 158.25 99.8047C157.75 100.164 157.367 100.664 157.102 101.305C156.852 101.93 156.68 102.648 156.586 103.461C156.508 104.273 156.469 105.141 156.469 106.062V106.602C156.469 107.539 156.508 108.422 156.586 109.25C156.68 110.062 156.859 110.781 157.125 111.406C157.391 112.016 157.773 112.5 158.273 112.859C158.773 113.203 159.438 113.375 160.266 113.375ZM182.273 83V119H174.375V83H182.273ZM181.336 105.453L179.484 105.5C179.484 103.719 179.703 102.078 180.141 100.578C180.578 99.0781 181.203 97.7734 182.016 96.6641C182.828 95.5547 183.805 94.6953 184.945 94.0859C186.086 93.4766 187.352 93.1719 188.742 93.1719C189.992 93.1719 191.133 93.3516 192.164 93.7109C193.211 94.0703 194.109 94.6484 194.859 95.4453C195.625 96.2422 196.211 97.2812 196.617 98.5625C197.039 99.8438 197.25 101.406 197.25 103.25V119H189.305V103.203C189.305 102.172 189.156 101.375 188.859 100.812C188.578 100.234 188.172 99.8359 187.641 99.6172C187.109 99.3828 186.461 99.2656 185.695 99.2656C184.773 99.2656 184.023 99.4219 183.445 99.7344C182.867 100.047 182.422 100.484 182.109 101.047C181.812 101.594 181.609 102.242 181.5 102.992C181.391 103.742 181.336 104.562 181.336 105.453ZM231.539 109.93C231.539 109.398 231.461 108.922 231.305 108.5C231.148 108.062 230.859 107.656 230.438 107.281C230.016 106.906 229.406 106.531 228.609 106.156C227.828 105.766 226.797 105.359 225.516 104.938C224.016 104.438 222.57 103.875 221.18 103.25C219.789 102.609 218.547 101.867 217.453 101.023C216.359 100.164 215.492 99.1641 214.852 98.0234C214.211 96.8672 213.891 95.5234 213.891 93.9922C213.891 92.5234 214.219 91.2031 214.875 90.0312C215.531 88.8438 216.445 87.8359 217.617 87.0078C218.805 86.1641 220.195 85.5234 221.789 85.0859C223.383 84.6328 225.125 84.4062 227.016 84.4062C229.516 84.4062 231.719 84.8438 233.625 85.7188C235.547 86.5781 237.047 87.8047 238.125 89.3984C239.219 90.9766 239.766 92.8438 239.766 95H231.586C231.586 94.1406 231.406 93.3828 231.047 92.7266C230.703 92.0703 230.18 91.5547 229.477 91.1797C228.773 90.8047 227.891 90.6172 226.828 90.6172C225.797 90.6172 224.93 90.7734 224.227 91.0859C223.523 91.3984 222.992 91.8203 222.633 92.3516C222.273 92.8672 222.094 93.4375 222.094 94.0625C222.094 94.5781 222.234 95.0469 222.516 95.4688C222.812 95.875 223.227 96.2578 223.758 96.6172C224.305 96.9766 224.961 97.3203 225.727 97.6484C226.508 97.9766 227.383 98.2969 228.352 98.6094C230.164 99.1875 231.773 99.8359 233.18 100.555C234.602 101.258 235.797 102.062 236.766 102.969C237.75 103.859 238.492 104.875 238.992 106.016C239.508 107.156 239.766 108.445 239.766 109.883C239.766 111.414 239.469 112.773 238.875 113.961C238.281 115.148 237.43 116.156 236.32 116.984C235.211 117.797 233.883 118.414 232.336 118.836C230.789 119.258 229.062 119.469 227.156 119.469C225.406 119.469 223.68 119.25 221.977 118.812C220.289 118.359 218.758 117.672 217.383 116.75C216.008 115.812 214.906 114.617 214.078 113.164C213.266 111.695 212.859 109.953 212.859 107.938H221.109C221.109 108.938 221.242 109.781 221.508 110.469C221.773 111.156 222.164 111.711 222.68 112.133C223.195 112.539 223.828 112.836 224.578 113.023C225.328 113.195 226.188 113.281 227.156 113.281C228.203 113.281 229.047 113.133 229.688 112.836C230.328 112.523 230.797 112.117 231.094 111.617C231.391 111.102 231.539 110.539 231.539 109.93ZM256.992 93.6406V99.125H241.711V93.6406H256.992ZM244.922 87.3359H252.82V110.727C252.82 111.398 252.898 111.922 253.055 112.297C253.211 112.656 253.477 112.914 253.852 113.07C254.242 113.211 254.758 113.281 255.398 113.281C255.852 113.281 256.227 113.273 256.523 113.258C256.82 113.227 257.102 113.188 257.367 113.141V118.789C256.695 119.008 255.992 119.172 255.258 119.281C254.523 119.406 253.742 119.469 252.914 119.469C251.227 119.469 249.781 119.203 248.578 118.672C247.391 118.141 246.484 117.305 245.859 116.164C245.234 115.023 244.922 113.539 244.922 111.711V87.3359ZM273.305 112.625V102.172C273.305 101.453 273.203 100.836 273 100.32C272.797 99.8047 272.477 99.4062 272.039 99.125C271.602 98.8281 271.016 98.6797 270.281 98.6797C269.688 98.6797 269.18 98.7812 268.758 98.9844C268.336 99.1875 268.016 99.4922 267.797 99.8984C267.578 100.305 267.469 100.82 267.469 101.445H259.57C259.57 100.273 259.828 99.1875 260.344 98.1875C260.875 97.1719 261.625 96.2891 262.594 95.5391C263.578 94.7891 264.75 94.2109 266.109 93.8047C267.484 93.3828 269.016 93.1719 270.703 93.1719C272.719 93.1719 274.516 93.5078 276.094 94.1797C277.688 94.8516 278.945 95.8594 279.867 97.2031C280.789 98.5312 281.25 100.203 281.25 102.219V112.602C281.25 114.258 281.344 115.516 281.531 116.375C281.719 117.219 281.984 117.961 282.328 118.602V119H274.406C274.031 118.219 273.75 117.266 273.562 116.141C273.391 115 273.305 113.828 273.305 112.625ZM274.266 103.508L274.312 107.727H270.82C270.086 107.727 269.461 107.828 268.945 108.031C268.445 108.234 268.039 108.516 267.727 108.875C267.43 109.219 267.211 109.609 267.07 110.047C266.945 110.484 266.883 110.945 266.883 111.43C266.883 111.898 266.992 112.32 267.211 112.695C267.445 113.055 267.758 113.336 268.148 113.539C268.539 113.742 268.977 113.844 269.461 113.844C270.336 113.844 271.078 113.68 271.688 113.352C272.312 113.008 272.789 112.594 273.117 112.109C273.445 111.625 273.609 111.172 273.609 110.75L275.344 113.984C275.031 114.609 274.672 115.242 274.266 115.883C273.875 116.523 273.383 117.117 272.789 117.664C272.211 118.195 271.5 118.633 270.656 118.977C269.812 119.305 268.789 119.469 267.586 119.469C266.023 119.469 264.586 119.148 263.273 118.508C261.977 117.867 260.938 116.977 260.156 115.836C259.375 114.68 258.984 113.352 258.984 111.852C258.984 110.539 259.219 109.367 259.688 108.336C260.172 107.305 260.898 106.43 261.867 105.711C262.836 104.992 264.07 104.445 265.57 104.07C267.07 103.695 268.836 103.508 270.867 103.508H274.266ZM296.344 113.375C297.078 113.375 297.703 113.242 298.219 112.977C298.75 112.695 299.148 112.305 299.414 111.805C299.695 111.289 299.828 110.672 299.812 109.953H307.242C307.258 111.859 306.789 113.531 305.836 114.969C304.898 116.391 303.617 117.5 301.992 118.297C300.383 119.078 298.562 119.469 296.531 119.469C294.547 119.469 292.812 119.148 291.328 118.508C289.844 117.852 288.602 116.945 287.602 115.789C286.617 114.617 285.875 113.25 285.375 111.688C284.891 110.125 284.648 108.43 284.648 106.602V106.062C284.648 104.234 284.891 102.539 285.375 100.977C285.875 99.3984 286.617 98.0312 287.602 96.875C288.602 95.7031 289.836 94.7969 291.305 94.1562C292.789 93.5 294.516 93.1719 296.484 93.1719C298.594 93.1719 300.453 93.5703 302.062 94.3672C303.688 95.1641 304.961 96.3203 305.883 97.8359C306.805 99.3516 307.258 101.188 307.242 103.344H299.812C299.828 102.578 299.711 101.891 299.461 101.281C299.211 100.672 298.82 100.188 298.289 99.8281C297.773 99.4531 297.109 99.2656 296.297 99.2656C295.484 99.2656 294.828 99.4453 294.328 99.8047C293.828 100.164 293.445 100.664 293.18 101.305C292.93 101.93 292.758 102.648 292.664 103.461C292.586 104.273 292.547 105.141 292.547 106.062V106.602C292.547 107.539 292.586 108.422 292.664 109.25C292.758 110.062 292.938 110.781 293.203 111.406C293.469 112.016 293.852 112.5 294.352 112.859C294.852 113.203 295.516 113.375 296.344 113.375ZM318.586 82.9766V119H310.688V82.9766H318.586ZM334.805 93.6406L323.789 106.555L318.023 112.32L314.578 107.305L319.383 101.047L325.336 93.6406H334.805ZM326.344 119L319.57 107.445L325.406 103.297L335.391 119H326.344Z" fill="black"/>
<path d="M1134 0H1348C1356.28 0 1363 6.71573 1363 15V148C1363 156.284 1356.28 163 1348 163H1134V0Z" fill="#FCC860"/>
<path fill-rule="evenodd" clip-rule="evenodd" d="M1218.75 53C1218.62 53 1218.49 53.0527 1218.4 53.1464C1218.3 53.2402 1218.25 53.3674 1218.25 53.5V109.5C1218.25 109.633 1218.3 109.76 1218.4 109.854C1218.49 109.947 1218.62 110 1218.75 110H1278.25C1278.38 110 1278.51 109.947 1278.6 109.854C1278.7 109.76 1278.75 109.633 1278.75 109.5V64C1278.75 63.8674 1278.7 63.7402 1278.6 63.6464C1278.51 63.5527 1278.38 63.5 1278.25 63.5H1248.5C1247.61 63.5 1246.77 63.1045 1246.2 62.4206L1238.34 53H1218.75ZM1214.15 48.9038C1215.37 47.6848 1217.03 47 1218.75 47H1239.75C1240.64 47 1241.48 47.3955 1242.05 48.0794L1249.91 57.5H1278.25C1279.97 57.5 1281.63 58.1848 1282.85 59.4038C1284.07 60.6228 1284.75 62.2761 1284.75 64V109.5C1284.75 111.224 1284.07 112.877 1282.85 114.096C1281.63 115.315 1279.97 116 1278.25 116H1218.75C1217.03 116 1215.37 115.315 1214.15 114.096C1212.93 112.877 1212.25 111.224 1212.25 109.5V53.5C1212.25 51.7761 1212.93 50.1228 1214.15 48.9038Z" fill="white"/>
<path fill-rule="evenodd" clip-rule="evenodd" d="M1243.97 75.5251C1245.34 76.892 1245.34 79.108 1243.97 80.4749L1237.7 86.75L1243.97 93.0251C1245.34 94.392 1245.34 96.608 1243.97 97.9749C1242.61 99.3417 1240.39 99.3417 1239.03 97.9749L1230.28 89.2249C1228.91 87.858 1228.91 85.642 1230.28 84.2751L1239.03 75.5251C1240.39 74.1583 1242.61 74.1583 1243.97 75.5251Z" fill="white"/>
<path fill-rule="evenodd" clip-rule="evenodd" d="M1252.28 97.9749C1250.91 96.608 1250.91 94.392 1252.28 93.0251L1258.55 86.75L1252.28 80.4749C1250.91 79.108 1250.91 76.892 1252.28 75.5251C1253.64 74.1583 1255.86 74.1583 1257.22 75.5251L1265.97 84.2751C1267.34 85.642 1267.34 87.858 1265.97 89.2249L1257.22 97.9749C1255.86 99.3417 1253.64 99.3417 1252.28 97.9749Z" fill="white"/>
</svg>
