<svg width="1363" height="163" viewBox="0 0 1363 163" fill="none" xmlns="http://www.w3.org/2000/svg">
<path d="M0 15C0 6.71573 6.71573 0 15 0H37V163H15C6.71573 163 0 156.284 0 148V15Z" fill="#FCC860"/>
<rect width="1097" height="163" transform="translate(37)" fill="#F0F0F0"/>
<path d="M101.906 53.9219L94.3945 51.2383V48.0859L104.602 52.375V54.6367L101.906 53.9219ZM94.3945 56.1719L101.918 53.4297L104.602 52.7852V55.0352L94.3945 59.3242V56.1719ZM118.137 61H114.422L114.445 58.2578H118.137C119.059 58.2578 119.836 58.0508 120.469 57.6367C121.102 57.2148 121.578 56.6016 121.898 55.7969C122.227 54.9922 122.391 54.0195 122.391 52.8789V52.0469C122.391 51.1719 122.297 50.4023 122.109 49.7383C121.93 49.0742 121.66 48.5156 121.301 48.0625C120.941 47.6094 120.5 47.2695 119.977 47.043C119.453 46.8086 118.852 46.6914 118.172 46.6914H114.352V43.9375H118.172C119.312 43.9375 120.355 44.1328 121.301 44.5234C122.254 44.9062 123.078 45.457 123.773 46.1758C124.469 46.8945 125.004 47.7539 125.379 48.7539C125.762 49.7461 125.953 50.8516 125.953 52.0703V52.8789C125.953 54.0898 125.762 55.1953 125.379 56.1953C125.004 57.1953 124.469 58.0547 123.773 58.7734C123.086 59.4844 122.262 60.0352 121.301 60.4258C120.348 60.8086 119.293 61 118.137 61ZM116.414 43.9375V61H112.898V43.9375H116.414ZM134.133 61.2344C133.148 61.2344 132.266 61.0781 131.484 60.7656C130.703 60.4453 130.039 60.0039 129.492 59.4414C128.953 58.8789 128.539 58.2266 128.25 57.4844C127.961 56.7344 127.816 55.9375 127.816 55.0938V54.625C127.816 53.6641 127.953 52.7852 128.227 51.9883C128.5 51.1914 128.891 50.5 129.398 49.9141C129.914 49.3281 130.539 48.8789 131.273 48.5664C132.008 48.2461 132.836 48.0859 133.758 48.0859C134.656 48.0859 135.453 48.2344 136.148 48.5312C136.844 48.8281 137.426 49.25 137.895 49.7969C138.371 50.3438 138.73 51 138.973 51.7656C139.215 52.5234 139.336 53.3672 139.336 54.2969V55.7031H129.258V53.4531H136.02V53.1953C136.02 52.7266 135.934 52.3086 135.762 51.9414C135.598 51.5664 135.348 51.2695 135.012 51.0508C134.676 50.832 134.246 50.7227 133.723 50.7227C133.277 50.7227 132.895 50.8203 132.574 51.0156C132.254 51.2109 131.992 51.4844 131.789 51.8359C131.594 52.1875 131.445 52.6016 131.344 53.0781C131.25 53.5469 131.203 54.0625 131.203 54.625V55.0938C131.203 55.6016 131.273 56.0703 131.414 56.5C131.562 56.9297 131.77 57.3008 132.035 57.6133C132.309 57.9258 132.637 58.168 133.02 58.3398C133.41 58.5117 133.852 58.5977 134.344 58.5977C134.953 58.5977 135.52 58.4805 136.043 58.2461C136.574 58.0039 137.031 57.6406 137.414 57.1562L139.055 58.9375C138.789 59.3203 138.426 59.6875 137.965 60.0391C137.512 60.3906 136.965 60.6797 136.324 60.9062C135.684 61.125 134.953 61.2344 134.133 61.2344ZM145.406 58.5391L148.219 48.3203H151.746L147.469 61H145.336L145.406 58.5391ZM143.473 48.3203L146.297 58.5508L146.355 61H144.211L139.934 48.3203H143.473ZM162.352 56.5352C162.352 56.2305 162.305 55.957 162.211 55.7148C162.125 55.4648 161.961 55.2383 161.719 55.0352C161.477 54.8242 161.137 54.6172 160.699 54.4141C160.262 54.2109 159.695 54 159 53.7812C158.227 53.5312 157.492 53.25 156.797 52.9375C156.109 52.625 155.5 52.2617 154.969 51.8477C154.445 51.4258 154.031 50.9375 153.727 50.3828C153.43 49.8281 153.281 49.1836 153.281 48.4492C153.281 47.7383 153.438 47.0938 153.75 46.5156C154.062 45.9297 154.5 45.4297 155.062 45.0156C155.625 44.5938 156.289 44.2695 157.055 44.043C157.828 43.8164 158.676 43.7031 159.598 43.7031C160.855 43.7031 161.953 43.9297 162.891 44.3828C163.828 44.8359 164.555 45.457 165.07 46.2461C165.594 47.0352 165.855 47.9375 165.855 48.9531H162.363C162.363 48.4531 162.258 48.0156 162.047 47.6406C161.844 47.2578 161.531 46.957 161.109 46.7383C160.695 46.5195 160.172 46.4102 159.539 46.4102C158.93 46.4102 158.422 46.5039 158.016 46.6914C157.609 46.8711 157.305 47.1172 157.102 47.4297C156.898 47.7344 156.797 48.0781 156.797 48.4609C156.797 48.75 156.867 49.0117 157.008 49.2461C157.156 49.4805 157.375 49.6992 157.664 49.9023C157.953 50.1055 158.309 50.2969 158.73 50.4766C159.152 50.6562 159.641 50.832 160.195 51.0039C161.125 51.2852 161.941 51.6016 162.645 51.9531C163.355 52.3047 163.949 52.6992 164.426 53.1367C164.902 53.5742 165.262 54.0703 165.504 54.625C165.746 55.1797 165.867 55.8086 165.867 56.5117C165.867 57.2539 165.723 57.918 165.434 58.5039C165.145 59.0898 164.727 59.5859 164.18 59.9922C163.633 60.3984 162.98 60.707 162.223 60.918C161.465 61.1289 160.617 61.2344 159.68 61.2344C158.836 61.2344 158.004 61.125 157.184 60.9062C156.363 60.6797 155.617 60.3398 154.945 59.8867C154.281 59.4336 153.75 58.8555 153.352 58.1523C152.953 57.4492 152.754 56.6172 152.754 55.6562H156.281C156.281 56.1875 156.363 56.6367 156.527 57.0039C156.691 57.3711 156.922 57.668 157.219 57.8945C157.523 58.1211 157.883 58.2852 158.297 58.3867C158.719 58.4883 159.18 58.5391 159.68 58.5391C160.289 58.5391 160.789 58.4531 161.18 58.2812C161.578 58.1094 161.871 57.8711 162.059 57.5664C162.254 57.2617 162.352 56.918 162.352 56.5352ZM171.668 57.7188L174.305 48.3203H176.449L175.758 52.0117L173.121 61H171.328L171.668 57.7188ZM170.332 48.3203L172.219 57.707L172.395 61H170.285L167.074 48.3203H170.332ZM178.863 57.5547L180.703 48.3203H183.973L180.762 61H178.664L178.863 57.5547ZM176.742 48.3203L179.367 57.6484L179.73 61H177.926L175.289 52.0234L174.621 48.3203H176.742ZM189.234 48.3203V61H185.848V48.3203H189.234ZM185.637 45.0156C185.637 44.5234 185.809 44.1172 186.152 43.7969C186.496 43.4766 186.957 43.3164 187.535 43.3164C188.105 43.3164 188.562 43.4766 188.906 43.7969C189.258 44.1172 189.434 44.5234 189.434 45.0156C189.434 45.5078 189.258 45.9141 188.906 46.2344C188.562 46.5547 188.105 46.7148 187.535 46.7148C186.957 46.7148 186.496 46.5547 186.152 46.2344C185.809 45.9141 185.637 45.5078 185.637 45.0156ZM195.398 50.7578V65.875H192.023V48.3203H195.152L195.398 50.7578ZM203.426 54.5195V54.7656C203.426 55.6875 203.316 56.543 203.098 57.332C202.887 58.1211 202.574 58.8086 202.16 59.3945C201.746 59.9727 201.23 60.4258 200.613 60.7539C200.004 61.0742 199.301 61.2344 198.504 61.2344C197.73 61.2344 197.059 61.0781 196.488 60.7656C195.918 60.4531 195.438 60.0156 195.047 59.4531C194.664 58.8828 194.355 58.2227 194.121 57.4727C193.887 56.7227 193.707 55.918 193.582 55.0586V54.4141C193.707 53.4922 193.887 52.6484 194.121 51.8828C194.355 51.1094 194.664 50.4414 195.047 49.8789C195.438 49.3086 195.914 48.8672 196.477 48.5547C197.047 48.2422 197.715 48.0859 198.48 48.0859C199.285 48.0859 199.992 48.2383 200.602 48.543C201.219 48.8477 201.734 49.2852 202.148 49.8555C202.57 50.4258 202.887 51.1055 203.098 51.8945C203.316 52.6836 203.426 53.5586 203.426 54.5195ZM200.039 54.7656V54.5195C200.039 53.9805 199.992 53.4844 199.898 53.0312C199.812 52.5703 199.672 52.168 199.477 51.8242C199.289 51.4805 199.039 51.2148 198.727 51.0273C198.422 50.832 198.051 50.7344 197.613 50.7344C197.152 50.7344 196.758 50.8086 196.43 50.957C196.109 51.1055 195.848 51.3203 195.645 51.6016C195.441 51.8828 195.289 52.2188 195.188 52.6094C195.086 53 195.023 53.4414 195 53.9336V55.5625C195.039 56.1406 195.148 56.6602 195.328 57.1211C195.508 57.5742 195.785 57.9336 196.16 58.1992C196.535 58.4648 197.027 58.5977 197.637 58.5977C198.082 58.5977 198.457 58.5 198.762 58.3047C199.066 58.1016 199.312 57.8242 199.5 57.4727C199.695 57.1211 199.832 56.7148 199.91 56.2539C199.996 55.793 200.039 55.2969 200.039 54.7656ZM211.359 61.2344C210.375 61.2344 209.492 61.0781 208.711 60.7656C207.93 60.4453 207.266 60.0039 206.719 59.4414C206.18 58.8789 205.766 58.2266 205.477 57.4844C205.188 56.7344 205.043 55.9375 205.043 55.0938V54.625C205.043 53.6641 205.18 52.7852 205.453 51.9883C205.727 51.1914 206.117 50.5 206.625 49.9141C207.141 49.3281 207.766 48.8789 208.5 48.5664C209.234 48.2461 210.062 48.0859 210.984 48.0859C211.883 48.0859 212.68 48.2344 213.375 48.5312C214.07 48.8281 214.652 49.25 215.121 49.7969C215.598 50.3438 215.957 51 216.199 51.7656C216.441 52.5234 216.562 53.3672 216.562 54.2969V55.7031H206.484V53.4531H213.246V53.1953C213.246 52.7266 213.16 52.3086 212.988 51.9414C212.824 51.5664 212.574 51.2695 212.238 51.0508C211.902 50.832 211.473 50.7227 210.949 50.7227C210.504 50.7227 210.121 50.8203 209.801 51.0156C209.48 51.2109 209.219 51.4844 209.016 51.8359C208.82 52.1875 208.672 52.6016 208.57 53.0781C208.477 53.5469 208.43 54.0625 208.43 54.625V55.0938C208.43 55.6016 208.5 56.0703 208.641 56.5C208.789 56.9297 208.996 57.3008 209.262 57.6133C209.535 57.9258 209.863 58.168 210.246 58.3398C210.637 58.5117 211.078 58.5977 211.57 58.5977C212.18 58.5977 212.746 58.4805 213.27 58.2461C213.801 58.0039 214.258 57.6406 214.641 57.1562L216.281 58.9375C216.016 59.3203 215.652 59.6875 215.191 60.0391C214.738 60.3906 214.191 60.6797 213.551 60.9062C212.91 61.125 212.18 61.2344 211.359 61.2344Z" fill="#888888"/>
<path d="M112.125 84.875V119H103.898V84.875H112.125ZM122.391 84.875V91.2266H93.8672V84.875H122.391ZM134.695 112.625V102.172C134.695 101.453 134.594 100.836 134.391 100.32C134.188 99.8047 133.867 99.4062 133.43 99.125C132.992 98.8281 132.406 98.6797 131.672 98.6797C131.078 98.6797 130.57 98.7812 130.148 98.9844C129.727 99.1875 129.406 99.4922 129.188 99.8984C128.969 100.305 128.859 100.82 128.859 101.445H120.961C120.961 100.273 121.219 99.1875 121.734 98.1875C122.266 97.1719 123.016 96.2891 123.984 95.5391C124.969 94.7891 126.141 94.2109 127.5 93.8047C128.875 93.3828 130.406 93.1719 132.094 93.1719C134.109 93.1719 135.906 93.5078 137.484 94.1797C139.078 94.8516 140.336 95.8594 141.258 97.2031C142.18 98.5312 142.641 100.203 142.641 102.219V112.602C142.641 114.258 142.734 115.516 142.922 116.375C143.109 117.219 143.375 117.961 143.719 118.602V119H135.797C135.422 118.219 135.141 117.266 134.953 116.141C134.781 115 134.695 113.828 134.695 112.625ZM135.656 103.508L135.703 107.727H132.211C131.477 107.727 130.852 107.828 130.336 108.031C129.836 108.234 129.43 108.516 129.117 108.875C128.82 109.219 128.602 109.609 128.461 110.047C128.336 110.484 128.273 110.945 128.273 111.43C128.273 111.898 128.383 112.32 128.602 112.695C128.836 113.055 129.148 113.336 129.539 113.539C129.93 113.742 130.367 113.844 130.852 113.844C131.727 113.844 132.469 113.68 133.078 113.352C133.703 113.008 134.18 112.594 134.508 112.109C134.836 111.625 135 111.172 135 110.75L136.734 113.984C136.422 114.609 136.062 115.242 135.656 115.883C135.266 116.523 134.773 117.117 134.18 117.664C133.602 118.195 132.891 118.633 132.047 118.977C131.203 119.305 130.18 119.469 128.977 119.469C127.414 119.469 125.977 119.148 124.664 118.508C123.367 117.867 122.328 116.977 121.547 115.836C120.766 114.68 120.375 113.352 120.375 111.852C120.375 110.539 120.609 109.367 121.078 108.336C121.562 107.305 122.289 106.43 123.258 105.711C124.227 104.992 125.461 104.445 126.961 104.07C128.461 103.695 130.227 103.508 132.258 103.508H135.656ZM147.094 83H154.992V112.766L154.172 119H147.094V83ZM170.555 106.039V106.531C170.555 108.453 170.359 110.203 169.969 111.781C169.578 113.359 168.977 114.727 168.164 115.883C167.352 117.023 166.328 117.906 165.094 118.531C163.859 119.156 162.398 119.469 160.711 119.469C159.18 119.469 157.867 119.141 156.773 118.484C155.68 117.812 154.766 116.891 154.031 115.719C153.297 114.531 152.703 113.164 152.25 111.617C151.797 110.055 151.438 108.383 151.172 106.602V106.016C151.438 104.25 151.797 102.594 152.25 101.047C152.703 99.4844 153.297 98.1172 154.031 96.9453C154.766 95.7578 155.672 94.8359 156.75 94.1797C157.844 93.5078 159.148 93.1719 160.664 93.1719C162.367 93.1719 163.836 93.4922 165.07 94.1328C166.32 94.7734 167.352 95.6719 168.164 96.8281C168.977 97.9844 169.578 99.3438 169.969 100.906C170.359 102.469 170.555 104.18 170.555 106.039ZM162.656 106.531V106.039C162.656 105.117 162.602 104.25 162.492 103.438C162.383 102.625 162.188 101.906 161.906 101.281C161.625 100.656 161.227 100.164 160.711 99.8047C160.195 99.4453 159.523 99.2656 158.695 99.2656C157.852 99.2656 157.141 99.4062 156.562 99.6875C156 99.9688 155.547 100.375 155.203 100.906C154.875 101.422 154.641 102.062 154.5 102.828C154.359 103.578 154.297 104.43 154.312 105.383V107.234C154.281 108.531 154.398 109.641 154.664 110.562C154.93 111.484 155.391 112.188 156.047 112.672C156.703 113.156 157.602 113.398 158.742 113.398C159.586 113.398 160.266 113.234 160.781 112.906C161.312 112.578 161.711 112.109 161.977 111.5C162.242 110.891 162.422 110.164 162.516 109.32C162.609 108.477 162.656 107.547 162.656 106.531ZM182.414 83V119H174.492V83H182.414ZM199.57 119.469C197.508 119.469 195.664 119.148 194.039 118.508C192.414 117.852 191.039 116.953 189.914 115.812C188.805 114.672 187.953 113.359 187.359 111.875C186.781 110.391 186.492 108.82 186.492 107.164V106.273C186.492 104.414 186.75 102.695 187.266 101.117C187.781 99.5234 188.547 98.1328 189.562 96.9453C190.578 95.7578 191.852 94.8359 193.383 94.1797C194.914 93.5078 196.695 93.1719 198.727 93.1719C200.523 93.1719 202.133 93.4609 203.555 94.0391C204.977 94.6172 206.18 95.4453 207.164 96.5234C208.164 97.6016 208.922 98.9062 209.438 100.438C209.969 101.969 210.234 103.688 210.234 105.594V108.805H189.516V103.859H202.523V103.25C202.539 102.406 202.391 101.688 202.078 101.094C201.781 100.5 201.344 100.047 200.766 99.7344C200.188 99.4219 199.484 99.2656 198.656 99.2656C197.797 99.2656 197.086 99.4531 196.523 99.8281C195.977 100.203 195.547 100.719 195.234 101.375C194.938 102.016 194.727 102.758 194.602 103.602C194.477 104.445 194.414 105.336 194.414 106.273V107.164C194.414 108.102 194.539 108.953 194.789 109.719C195.055 110.484 195.43 111.141 195.914 111.688C196.414 112.219 197.008 112.633 197.695 112.93C198.398 113.227 199.195 113.375 200.086 113.375C201.164 113.375 202.227 113.172 203.273 112.766C204.32 112.359 205.219 111.688 205.969 110.75L209.555 115.016C209.039 115.75 208.305 116.461 207.352 117.148C206.414 117.836 205.289 118.398 203.977 118.836C202.664 119.258 201.195 119.469 199.57 119.469ZM224.414 106.578V106.086C224.414 104.227 224.68 102.516 225.211 100.953C225.742 99.375 226.523 98.0078 227.555 96.8516C228.586 95.6953 229.859 94.7969 231.375 94.1562C232.891 93.5 234.641 93.1719 236.625 93.1719C238.625 93.1719 240.383 93.5 241.898 94.1562C243.43 94.7969 244.711 95.6953 245.742 96.8516C246.773 98.0078 247.555 99.375 248.086 100.953C248.617 102.516 248.883 104.227 248.883 106.086V106.578C248.883 108.422 248.617 110.133 248.086 111.711C247.555 113.273 246.773 114.641 245.742 115.812C244.711 116.969 243.438 117.867 241.922 118.508C240.406 119.148 238.656 119.469 236.672 119.469C234.688 119.469 232.93 119.148 231.398 118.508C229.867 117.867 228.586 116.969 227.555 115.812C226.523 114.641 225.742 113.273 225.211 111.711C224.68 110.133 224.414 108.422 224.414 106.578ZM232.312 106.086V106.578C232.312 107.531 232.383 108.422 232.523 109.25C232.664 110.078 232.898 110.805 233.227 111.43C233.555 112.039 234 112.516 234.562 112.859C235.125 113.203 235.828 113.375 236.672 113.375C237.5 113.375 238.188 113.203 238.734 112.859C239.297 112.516 239.742 112.039 240.07 111.43C240.398 110.805 240.633 110.078 240.773 109.25C240.914 108.422 240.984 107.531 240.984 106.578V106.086C240.984 105.164 240.914 104.297 240.773 103.484C240.633 102.656 240.398 101.93 240.07 101.305C239.742 100.664 239.297 100.164 238.734 99.8047C238.172 99.4453 237.469 99.2656 236.625 99.2656C235.797 99.2656 235.102 99.4453 234.539 99.8047C233.992 100.164 233.555 100.664 233.227 101.305C232.898 101.93 232.664 102.656 232.523 103.484C232.383 104.297 232.312 105.164 232.312 106.086ZM262.078 119H254.133V91.5781C254.133 89.6094 254.531 87.9531 255.328 86.6094C256.125 85.2656 257.25 84.25 258.703 83.5625C260.156 82.8594 261.875 82.5078 263.859 82.5078C264.547 82.5078 265.195 82.5547 265.805 82.6484C266.414 82.7422 267.008 82.8594 267.586 83L267.609 88.8125C267.328 88.7344 267.039 88.6797 266.742 88.6484C266.445 88.6172 266.078 88.6016 265.641 88.6016C264.875 88.6016 264.227 88.7188 263.695 88.9531C263.164 89.1719 262.758 89.5078 262.477 89.9609C262.211 90.3984 262.078 90.9375 262.078 91.5781V119ZM267 93.6406V99.125H250.477V93.6406H267ZM301.57 107.445H309.773C309.664 109.82 309.023 111.914 307.852 113.727C306.68 115.539 305.055 116.953 302.977 117.969C300.914 118.969 298.477 119.469 295.664 119.469C293.383 119.469 291.344 119.086 289.547 118.32C287.766 117.555 286.25 116.453 285 115.016C283.766 113.578 282.82 111.836 282.164 109.789C281.523 107.742 281.203 105.438 281.203 102.875V101.023C281.203 98.4609 281.539 96.1562 282.211 94.1094C282.898 92.0469 283.867 90.2969 285.117 88.8594C286.383 87.4062 287.898 86.2969 289.664 85.5312C291.43 84.7656 293.391 84.3828 295.547 84.3828C298.516 84.3828 301.023 84.9141 303.07 85.9766C305.117 87.0391 306.703 88.5 307.828 90.3594C308.953 92.2031 309.617 94.3047 309.82 96.6641H301.617C301.586 95.3828 301.367 94.3125 300.961 93.4531C300.555 92.5781 299.914 91.9219 299.039 91.4844C298.164 91.0469 297 90.8281 295.547 90.8281C294.531 90.8281 293.648 91.0156 292.898 91.3906C292.148 91.7656 291.523 92.3594 291.023 93.1719C290.523 93.9844 290.148 95.0391 289.898 96.3359C289.664 97.6172 289.547 99.1641 289.547 100.977V102.875C289.547 104.688 289.656 106.234 289.875 107.516C290.094 108.797 290.445 109.844 290.93 110.656C291.414 111.469 292.039 112.07 292.805 112.461C293.586 112.836 294.539 113.023 295.664 113.023C296.914 113.023 297.969 112.828 298.828 112.438C299.688 112.031 300.352 111.422 300.82 110.609C301.289 109.781 301.539 108.727 301.57 107.445ZM312.305 106.578V106.086C312.305 104.227 312.57 102.516 313.102 100.953C313.633 99.375 314.414 98.0078 315.445 96.8516C316.477 95.6953 317.75 94.7969 319.266 94.1562C320.781 93.5 322.531 93.1719 324.516 93.1719C326.516 93.1719 328.273 93.5 329.789 94.1562C331.32 94.7969 332.602 95.6953 333.633 96.8516C334.664 98.0078 335.445 99.375 335.977 100.953C336.508 102.516 336.773 104.227 336.773 106.086V106.578C336.773 108.422 336.508 110.133 335.977 111.711C335.445 113.273 334.664 114.641 333.633 115.812C332.602 116.969 331.328 117.867 329.812 118.508C328.297 119.148 326.547 119.469 324.562 119.469C322.578 119.469 320.82 119.148 319.289 118.508C317.758 117.867 316.477 116.969 315.445 115.812C314.414 114.641 313.633 113.273 313.102 111.711C312.57 110.133 312.305 108.422 312.305 106.578ZM320.203 106.086V106.578C320.203 107.531 320.273 108.422 320.414 109.25C320.555 110.078 320.789 110.805 321.117 111.43C321.445 112.039 321.891 112.516 322.453 112.859C323.016 113.203 323.719 113.375 324.562 113.375C325.391 113.375 326.078 113.203 326.625 112.859C327.188 112.516 327.633 112.039 327.961 111.43C328.289 110.805 328.523 110.078 328.664 109.25C328.805 108.422 328.875 107.531 328.875 106.578V106.086C328.875 105.164 328.805 104.297 328.664 103.484C328.523 102.656 328.289 101.93 327.961 101.305C327.633 100.664 327.188 100.164 326.625 99.8047C326.062 99.4453 325.359 99.2656 324.516 99.2656C323.688 99.2656 322.992 99.4453 322.43 99.8047C321.883 100.164 321.445 100.664 321.117 101.305C320.789 101.93 320.555 102.656 320.414 103.484C320.273 104.297 320.203 105.164 320.203 106.086ZM348.047 99.0547V119H340.148V93.6406H347.555L348.047 99.0547ZM347.109 105.453L345.258 105.5C345.258 103.562 345.492 101.836 345.961 100.32C346.43 98.7891 347.094 97.4922 347.953 96.4297C348.812 95.3672 349.836 94.5625 351.023 94.0156C352.227 93.4531 353.562 93.1719 355.031 93.1719C356.203 93.1719 357.273 93.3438 358.242 93.6875C359.227 94.0312 360.07 94.5859 360.773 95.3516C361.492 96.1172 362.039 97.1328 362.414 98.3984C362.805 99.6484 363 101.195 363 103.039V119H355.055V103.016C355.055 102 354.914 101.227 354.633 100.695C354.352 100.148 353.945 99.7734 353.414 99.5703C352.883 99.3672 352.234 99.2656 351.469 99.2656C350.656 99.2656 349.969 99.4219 349.406 99.7344C348.844 100.047 348.391 100.484 348.047 101.047C347.719 101.594 347.477 102.242 347.32 102.992C347.18 103.742 347.109 104.562 347.109 105.453ZM380.742 93.6406V99.125H365.461V93.6406H380.742ZM368.672 87.3359H376.57V110.727C376.57 111.398 376.648 111.922 376.805 112.297C376.961 112.656 377.227 112.914 377.602 113.07C377.992 113.211 378.508 113.281 379.148 113.281C379.602 113.281 379.977 113.273 380.273 113.258C380.57 113.227 380.852 113.188 381.117 113.141V118.789C380.445 119.008 379.742 119.172 379.008 119.281C378.273 119.406 377.492 119.469 376.664 119.469C374.977 119.469 373.531 119.203 372.328 118.672C371.141 118.141 370.234 117.305 369.609 116.164C368.984 115.023 368.672 113.539 368.672 111.711V87.3359ZM396.164 119.469C394.102 119.469 392.258 119.148 390.633 118.508C389.008 117.852 387.633 116.953 386.508 115.812C385.398 114.672 384.547 113.359 383.953 111.875C383.375 110.391 383.086 108.82 383.086 107.164V106.273C383.086 104.414 383.344 102.695 383.859 101.117C384.375 99.5234 385.141 98.1328 386.156 96.9453C387.172 95.7578 388.445 94.8359 389.977 94.1797C391.508 93.5078 393.289 93.1719 395.32 93.1719C397.117 93.1719 398.727 93.4609 400.148 94.0391C401.57 94.6172 402.773 95.4453 403.758 96.5234C404.758 97.6016 405.516 98.9062 406.031 100.438C406.562 101.969 406.828 103.688 406.828 105.594V108.805H386.109V103.859H399.117V103.25C399.133 102.406 398.984 101.688 398.672 101.094C398.375 100.5 397.938 100.047 397.359 99.7344C396.781 99.4219 396.078 99.2656 395.25 99.2656C394.391 99.2656 393.68 99.4531 393.117 99.8281C392.57 100.203 392.141 100.719 391.828 101.375C391.531 102.016 391.32 102.758 391.195 103.602C391.07 104.445 391.008 105.336 391.008 106.273V107.164C391.008 108.102 391.133 108.953 391.383 109.719C391.648 110.484 392.023 111.141 392.508 111.688C393.008 112.219 393.602 112.633 394.289 112.93C394.992 113.227 395.789 113.375 396.68 113.375C397.758 113.375 398.82 113.172 399.867 112.766C400.914 112.359 401.812 111.688 402.562 110.75L406.148 115.016C405.633 115.75 404.898 116.461 403.945 117.148C403.008 117.836 401.883 118.398 400.57 118.836C399.258 119.258 397.789 119.469 396.164 119.469ZM417.797 99.0547V119H409.898V93.6406H417.305L417.797 99.0547ZM416.859 105.453L415.008 105.5C415.008 103.562 415.242 101.836 415.711 100.32C416.18 98.7891 416.844 97.4922 417.703 96.4297C418.562 95.3672 419.586 94.5625 420.773 94.0156C421.977 93.4531 423.312 93.1719 424.781 93.1719C425.953 93.1719 427.023 93.3438 427.992 93.6875C428.977 94.0312 429.82 94.5859 430.523 95.3516C431.242 96.1172 431.789 97.1328 432.164 98.3984C432.555 99.6484 432.75 101.195 432.75 103.039V119H424.805V103.016C424.805 102 424.664 101.227 424.383 100.695C424.102 100.148 423.695 99.7734 423.164 99.5703C422.633 99.3672 421.984 99.2656 421.219 99.2656C420.406 99.2656 419.719 99.4219 419.156 99.7344C418.594 100.047 418.141 100.484 417.797 101.047C417.469 101.594 417.227 102.242 417.07 102.992C416.93 103.742 416.859 104.562 416.859 105.453ZM450.492 93.6406V99.125H435.211V93.6406H450.492ZM438.422 87.3359H446.32V110.727C446.32 111.398 446.398 111.922 446.555 112.297C446.711 112.656 446.977 112.914 447.352 113.07C447.742 113.211 448.258 113.281 448.898 113.281C449.352 113.281 449.727 113.273 450.023 113.258C450.32 113.227 450.602 113.188 450.867 113.141V118.789C450.195 119.008 449.492 119.172 448.758 119.281C448.023 119.406 447.242 119.469 446.414 119.469C444.727 119.469 443.281 119.203 442.078 118.672C440.891 118.141 439.984 117.305 439.359 116.164C438.734 115.023 438.422 113.539 438.422 111.711V87.3359ZM466.922 111.875C466.922 111.438 466.773 111.062 466.477 110.75C466.195 110.422 465.695 110.125 464.977 109.859C464.258 109.578 463.25 109.297 461.953 109.016C460.719 108.75 459.555 108.398 458.461 107.961C457.383 107.523 456.438 106.992 455.625 106.367C454.812 105.742 454.172 105 453.703 104.141C453.25 103.281 453.023 102.297 453.023 101.188C453.023 100.109 453.25 99.0938 453.703 98.1406C454.172 97.1719 454.852 96.3203 455.742 95.5859C456.648 94.8359 457.75 94.25 459.047 93.8281C460.344 93.3906 461.82 93.1719 463.477 93.1719C465.758 93.1719 467.727 93.5234 469.383 94.2266C471.039 94.9141 472.312 95.8828 473.203 97.1328C474.109 98.3672 474.562 99.7969 474.562 101.422H466.664C466.664 100.781 466.555 100.234 466.336 99.7812C466.133 99.3281 465.797 98.9844 465.328 98.75C464.859 98.5 464.234 98.375 463.453 98.375C462.906 98.375 462.406 98.4766 461.953 98.6797C461.516 98.8828 461.164 99.1641 460.898 99.5234C460.633 99.8828 460.5 100.305 460.5 100.789C460.5 101.133 460.578 101.445 460.734 101.727C460.906 101.992 461.164 102.242 461.508 102.477C461.852 102.695 462.289 102.898 462.82 103.086C463.352 103.258 463.992 103.414 464.742 103.555C466.445 103.867 468.039 104.312 469.523 104.891C471.008 105.469 472.211 106.289 473.133 107.352C474.07 108.414 474.539 109.844 474.539 111.641C474.539 112.766 474.281 113.805 473.766 114.758C473.25 115.695 472.508 116.523 471.539 117.242C470.57 117.945 469.406 118.492 468.047 118.883C466.688 119.273 465.156 119.469 463.453 119.469C461.031 119.469 458.984 119.039 457.312 118.18C455.641 117.305 454.375 116.211 453.516 114.898C452.672 113.57 452.25 112.227 452.25 110.867H459.609C459.641 111.648 459.828 112.289 460.172 112.789C460.531 113.289 461.008 113.656 461.602 113.891C462.195 114.125 462.883 114.242 463.664 114.242C464.383 114.242 464.977 114.141 465.445 113.938C465.93 113.734 466.297 113.461 466.547 113.117C466.797 112.758 466.922 112.344 466.922 111.875Z" fill="black"/>
<path d="M1134 0H1348C1356.28 0 1363 6.71573 1363 15V148C1363 156.284 1356.28 163 1348 163H1134V0Z" fill="#FCC860"/>
<path d="M1228.5 41.5C1221.92 41.5 1216.5 46.9201 1216.5 53.5V109.5C1216.5 116.08 1221.92 121.5 1228.5 121.5H1280.5V113.5H1228.5C1226.24 113.5 1224.5 111.76 1224.5 109.5C1224.5 107.24 1226.24 105.5 1228.5 105.5H1280.5V97.5V41.5H1264.5H1240.5H1228.5ZM1228.5 49.5H1240.5V81.9922L1246.8 77.5781L1252.5 73.5703L1264.5 81.9922V49.5H1272.5V97.5H1228.5C1227.09 97.5 1225.76 97.7958 1224.5 98.25V53.5C1224.5 51.2399 1226.24 49.5 1228.5 49.5ZM1248.5 49.5H1256.5V66.6094L1252.5 63.8047L1248.5 66.6094V49.5Z" fill="white"/>
</svg>
