<svg width="1363" height="163" viewBox="0 0 1363 163" fill="none" xmlns="http://www.w3.org/2000/svg">
<path d="M0 15C0 6.71573 6.71573 0 15 0H37V163H15C6.71573 163 0 156.284 0 148V15Z" fill="#424242"/>
<rect width="1097" height="163" transform="translate(37)" fill="#F0F0F0"/>
<path d="M101.906 53.9219L94.3945 51.2383V48.0859L104.602 52.375V54.6367L101.906 53.9219ZM94.3945 56.1719L101.918 53.4297L104.602 52.7852V55.0352L94.3945 59.3242V56.1719ZM118.137 61H114.422L114.445 58.2578H118.137C119.059 58.2578 119.836 58.0508 120.469 57.6367C121.102 57.2148 121.578 56.6016 121.898 55.7969C122.227 54.9922 122.391 54.0195 122.391 52.8789V52.0469C122.391 51.1719 122.297 50.4023 122.109 49.7383C121.93 49.0742 121.66 48.5156 121.301 48.0625C120.941 47.6094 120.5 47.2695 119.977 47.043C119.453 46.8086 118.852 46.6914 118.172 46.6914H114.352V43.9375H118.172C119.312 43.9375 120.355 44.1328 121.301 44.5234C122.254 44.9062 123.078 45.457 123.773 46.1758C124.469 46.8945 125.004 47.7539 125.379 48.7539C125.762 49.7461 125.953 50.8516 125.953 52.0703V52.8789C125.953 54.0898 125.762 55.1953 125.379 56.1953C125.004 57.1953 124.469 58.0547 123.773 58.7734C123.086 59.4844 122.262 60.0352 121.301 60.4258C120.348 60.8086 119.293 61 118.137 61ZM116.414 43.9375V61H112.898V43.9375H116.414ZM134.133 61.2344C133.148 61.2344 132.266 61.0781 131.484 60.7656C130.703 60.4453 130.039 60.0039 129.492 59.4414C128.953 58.8789 128.539 58.2266 128.25 57.4844C127.961 56.7344 127.816 55.9375 127.816 55.0938V54.625C127.816 53.6641 127.953 52.7852 128.227 51.9883C128.5 51.1914 128.891 50.5 129.398 49.9141C129.914 49.3281 130.539 48.8789 131.273 48.5664C132.008 48.2461 132.836 48.0859 133.758 48.0859C134.656 48.0859 135.453 48.2344 136.148 48.5312C136.844 48.8281 137.426 49.25 137.895 49.7969C138.371 50.3438 138.73 51 138.973 51.7656C139.215 52.5234 139.336 53.3672 139.336 54.2969V55.7031H129.258V53.4531H136.02V53.1953C136.02 52.7266 135.934 52.3086 135.762 51.9414C135.598 51.5664 135.348 51.2695 135.012 51.0508C134.676 50.832 134.246 50.7227 133.723 50.7227C133.277 50.7227 132.895 50.8203 132.574 51.0156C132.254 51.2109 131.992 51.4844 131.789 51.8359C131.594 52.1875 131.445 52.6016 131.344 53.0781C131.25 53.5469 131.203 54.0625 131.203 54.625V55.0938C131.203 55.6016 131.273 56.0703 131.414 56.5C131.562 56.9297 131.77 57.3008 132.035 57.6133C132.309 57.9258 132.637 58.168 133.02 58.3398C133.41 58.5117 133.852 58.5977 134.344 58.5977C134.953 58.5977 135.52 58.4805 136.043 58.2461C136.574 58.0039 137.031 57.6406 137.414 57.1562L139.055 58.9375C138.789 59.3203 138.426 59.6875 137.965 60.0391C137.512 60.3906 136.965 60.6797 136.324 60.9062C135.684 61.125 134.953 61.2344 134.133 61.2344ZM145.406 58.5391L148.219 48.3203H151.746L147.469 61H145.336L145.406 58.5391ZM143.473 48.3203L146.297 58.5508L146.355 61H144.211L139.934 48.3203H143.473ZM162.352 56.5352C162.352 56.2305 162.305 55.957 162.211 55.7148C162.125 55.4648 161.961 55.2383 161.719 55.0352C161.477 54.8242 161.137 54.6172 160.699 54.4141C160.262 54.2109 159.695 54 159 53.7812C158.227 53.5312 157.492 53.25 156.797 52.9375C156.109 52.625 155.5 52.2617 154.969 51.8477C154.445 51.4258 154.031 50.9375 153.727 50.3828C153.43 49.8281 153.281 49.1836 153.281 48.4492C153.281 47.7383 153.438 47.0938 153.75 46.5156C154.062 45.9297 154.5 45.4297 155.062 45.0156C155.625 44.5938 156.289 44.2695 157.055 44.043C157.828 43.8164 158.676 43.7031 159.598 43.7031C160.855 43.7031 161.953 43.9297 162.891 44.3828C163.828 44.8359 164.555 45.457 165.07 46.2461C165.594 47.0352 165.855 47.9375 165.855 48.9531H162.363C162.363 48.4531 162.258 48.0156 162.047 47.6406C161.844 47.2578 161.531 46.957 161.109 46.7383C160.695 46.5195 160.172 46.4102 159.539 46.4102C158.93 46.4102 158.422 46.5039 158.016 46.6914C157.609 46.8711 157.305 47.1172 157.102 47.4297C156.898 47.7344 156.797 48.0781 156.797 48.4609C156.797 48.75 156.867 49.0117 157.008 49.2461C157.156 49.4805 157.375 49.6992 157.664 49.9023C157.953 50.1055 158.309 50.2969 158.73 50.4766C159.152 50.6562 159.641 50.832 160.195 51.0039C161.125 51.2852 161.941 51.6016 162.645 51.9531C163.355 52.3047 163.949 52.6992 164.426 53.1367C164.902 53.5742 165.262 54.0703 165.504 54.625C165.746 55.1797 165.867 55.8086 165.867 56.5117C165.867 57.2539 165.723 57.918 165.434 58.5039C165.145 59.0898 164.727 59.5859 164.18 59.9922C163.633 60.3984 162.98 60.707 162.223 60.918C161.465 61.1289 160.617 61.2344 159.68 61.2344C158.836 61.2344 158.004 61.125 157.184 60.9062C156.363 60.6797 155.617 60.3398 154.945 59.8867C154.281 59.4336 153.75 58.8555 153.352 58.1523C152.953 57.4492 152.754 56.6172 152.754 55.6562H156.281C156.281 56.1875 156.363 56.6367 156.527 57.0039C156.691 57.3711 156.922 57.668 157.219 57.8945C157.523 58.1211 157.883 58.2852 158.297 58.3867C158.719 58.4883 159.18 58.5391 159.68 58.5391C160.289 58.5391 160.789 58.4531 161.18 58.2812C161.578 58.1094 161.871 57.8711 162.059 57.5664C162.254 57.2617 162.352 56.918 162.352 56.5352ZM171.668 57.7188L174.305 48.3203H176.449L175.758 52.0117L173.121 61H171.328L171.668 57.7188ZM170.332 48.3203L172.219 57.707L172.395 61H170.285L167.074 48.3203H170.332ZM178.863 57.5547L180.703 48.3203H183.973L180.762 61H178.664L178.863 57.5547ZM176.742 48.3203L179.367 57.6484L179.73 61H177.926L175.289 52.0234L174.621 48.3203H176.742ZM189.234 48.3203V61H185.848V48.3203H189.234ZM185.637 45.0156C185.637 44.5234 185.809 44.1172 186.152 43.7969C186.496 43.4766 186.957 43.3164 187.535 43.3164C188.105 43.3164 188.562 43.4766 188.906 43.7969C189.258 44.1172 189.434 44.5234 189.434 45.0156C189.434 45.5078 189.258 45.9141 188.906 46.2344C188.562 46.5547 188.105 46.7148 187.535 46.7148C186.957 46.7148 186.496 46.5547 186.152 46.2344C185.809 45.9141 185.637 45.5078 185.637 45.0156ZM195.398 50.7578V65.875H192.023V48.3203H195.152L195.398 50.7578ZM203.426 54.5195V54.7656C203.426 55.6875 203.316 56.543 203.098 57.332C202.887 58.1211 202.574 58.8086 202.16 59.3945C201.746 59.9727 201.23 60.4258 200.613 60.7539C200.004 61.0742 199.301 61.2344 198.504 61.2344C197.73 61.2344 197.059 61.0781 196.488 60.7656C195.918 60.4531 195.438 60.0156 195.047 59.4531C194.664 58.8828 194.355 58.2227 194.121 57.4727C193.887 56.7227 193.707 55.918 193.582 55.0586V54.4141C193.707 53.4922 193.887 52.6484 194.121 51.8828C194.355 51.1094 194.664 50.4414 195.047 49.8789C195.438 49.3086 195.914 48.8672 196.477 48.5547C197.047 48.2422 197.715 48.0859 198.48 48.0859C199.285 48.0859 199.992 48.2383 200.602 48.543C201.219 48.8477 201.734 49.2852 202.148 49.8555C202.57 50.4258 202.887 51.1055 203.098 51.8945C203.316 52.6836 203.426 53.5586 203.426 54.5195ZM200.039 54.7656V54.5195C200.039 53.9805 199.992 53.4844 199.898 53.0312C199.812 52.5703 199.672 52.168 199.477 51.8242C199.289 51.4805 199.039 51.2148 198.727 51.0273C198.422 50.832 198.051 50.7344 197.613 50.7344C197.152 50.7344 196.758 50.8086 196.43 50.957C196.109 51.1055 195.848 51.3203 195.645 51.6016C195.441 51.8828 195.289 52.2188 195.188 52.6094C195.086 53 195.023 53.4414 195 53.9336V55.5625C195.039 56.1406 195.148 56.6602 195.328 57.1211C195.508 57.5742 195.785 57.9336 196.16 58.1992C196.535 58.4648 197.027 58.5977 197.637 58.5977C198.082 58.5977 198.457 58.5 198.762 58.3047C199.066 58.1016 199.312 57.8242 199.5 57.4727C199.695 57.1211 199.832 56.7148 199.91 56.2539C199.996 55.793 200.039 55.2969 200.039 54.7656ZM211.359 61.2344C210.375 61.2344 209.492 61.0781 208.711 60.7656C207.93 60.4453 207.266 60.0039 206.719 59.4414C206.18 58.8789 205.766 58.2266 205.477 57.4844C205.188 56.7344 205.043 55.9375 205.043 55.0938V54.625C205.043 53.6641 205.18 52.7852 205.453 51.9883C205.727 51.1914 206.117 50.5 206.625 49.9141C207.141 49.3281 207.766 48.8789 208.5 48.5664C209.234 48.2461 210.062 48.0859 210.984 48.0859C211.883 48.0859 212.68 48.2344 213.375 48.5312C214.07 48.8281 214.652 49.25 215.121 49.7969C215.598 50.3438 215.957 51 216.199 51.7656C216.441 52.5234 216.562 53.3672 216.562 54.2969V55.7031H206.484V53.4531H213.246V53.1953C213.246 52.7266 213.16 52.3086 212.988 51.9414C212.824 51.5664 212.574 51.2695 212.238 51.0508C211.902 50.832 211.473 50.7227 210.949 50.7227C210.504 50.7227 210.121 50.8203 209.801 51.0156C209.48 51.2109 209.219 51.4844 209.016 51.8359C208.82 52.1875 208.672 52.6016 208.57 53.0781C208.477 53.5469 208.43 54.0625 208.43 54.625V55.0938C208.43 55.6016 208.5 56.0703 208.641 56.5C208.789 56.9297 208.996 57.3008 209.262 57.6133C209.535 57.9258 209.863 58.168 210.246 58.3398C210.637 58.5117 211.078 58.5977 211.57 58.5977C212.18 58.5977 212.746 58.4805 213.27 58.2461C213.801 58.0039 214.258 57.6406 214.641 57.1562L216.281 58.9375C216.016 59.3203 215.652 59.6875 215.191 60.0391C214.738 60.3906 214.191 60.6797 213.551 60.9062C212.91 61.125 212.18 61.2344 211.359 61.2344Z" fill="#888888"/>
<path d="M109.219 107.422H100.734V101.07H109.219C110.375 101.07 111.312 100.875 112.031 100.484C112.75 100.094 113.273 99.5547 113.602 98.8672C113.945 98.1641 114.117 97.375 114.117 96.5C114.117 95.5625 113.945 94.6953 113.602 93.8984C113.273 93.1016 112.75 92.4609 112.031 91.9766C111.312 91.4766 110.375 91.2266 109.219 91.2266H103.828V119H95.6016V84.875H109.219C111.953 84.875 114.305 85.375 116.273 86.375C118.258 87.375 119.781 88.75 120.844 90.5C121.906 92.2344 122.438 94.2188 122.438 96.4531C122.438 98.6562 121.906 100.578 120.844 102.219C119.781 103.859 118.258 105.141 116.273 106.062C114.305 106.969 111.953 107.422 109.219 107.422ZM138.445 119.469C136.383 119.469 134.539 119.148 132.914 118.508C131.289 117.852 129.914 116.953 128.789 115.812C127.68 114.672 126.828 113.359 126.234 111.875C125.656 110.391 125.367 108.82 125.367 107.164V106.273C125.367 104.414 125.625 102.695 126.141 101.117C126.656 99.5234 127.422 98.1328 128.438 96.9453C129.453 95.7578 130.727 94.8359 132.258 94.1797C133.789 93.5078 135.57 93.1719 137.602 93.1719C139.398 93.1719 141.008 93.4609 142.43 94.0391C143.852 94.6172 145.055 95.4453 146.039 96.5234C147.039 97.6016 147.797 98.9062 148.312 100.438C148.844 101.969 149.109 103.688 149.109 105.594V108.805H128.391V103.859H141.398V103.25C141.414 102.406 141.266 101.688 140.953 101.094C140.656 100.5 140.219 100.047 139.641 99.7344C139.062 99.4219 138.359 99.2656 137.531 99.2656C136.672 99.2656 135.961 99.4531 135.398 99.8281C134.852 100.203 134.422 100.719 134.109 101.375C133.812 102.016 133.602 102.758 133.477 103.602C133.352 104.445 133.289 105.336 133.289 106.273V107.164C133.289 108.102 133.414 108.953 133.664 109.719C133.93 110.484 134.305 111.141 134.789 111.688C135.289 112.219 135.883 112.633 136.57 112.93C137.273 113.227 138.07 113.375 138.961 113.375C140.039 113.375 141.102 113.172 142.148 112.766C143.195 112.359 144.094 111.688 144.844 110.75L148.43 115.016C147.914 115.75 147.18 116.461 146.227 117.148C145.289 117.836 144.164 118.398 142.852 118.836C141.539 119.258 140.07 119.469 138.445 119.469ZM160.289 99.9219V119H152.391V93.6406H159.773L160.289 99.9219ZM167.789 93.4531L167.648 100.789C167.336 100.758 166.914 100.719 166.383 100.672C165.852 100.625 165.406 100.602 165.047 100.602C164.125 100.602 163.328 100.711 162.656 100.93C162 101.133 161.453 101.445 161.016 101.867C160.594 102.273 160.281 102.789 160.078 103.414C159.891 104.039 159.805 104.766 159.82 105.594L158.391 104.656C158.391 102.953 158.555 101.406 158.883 100.016C159.227 98.6094 159.711 97.3984 160.336 96.3828C160.961 95.3516 161.719 94.5625 162.609 94.0156C163.5 93.4531 164.5 93.1719 165.609 93.1719C166 93.1719 166.383 93.1953 166.758 93.2422C167.148 93.2891 167.492 93.3594 167.789 93.4531ZM180.703 119H172.758V91.5781C172.758 89.6094 173.156 87.9531 173.953 86.6094C174.75 85.2656 175.875 84.25 177.328 83.5625C178.781 82.8594 180.5 82.5078 182.484 82.5078C183.172 82.5078 183.82 82.5547 184.43 82.6484C185.039 82.7422 185.633 82.8594 186.211 83L186.234 88.8125C185.953 88.7344 185.664 88.6797 185.367 88.6484C185.07 88.6172 184.703 88.6016 184.266 88.6016C183.5 88.6016 182.852 88.7188 182.32 88.9531C181.789 89.1719 181.383 89.5078 181.102 89.9609C180.836 90.3984 180.703 90.9375 180.703 91.5781V119ZM185.625 93.6406V99.125H169.102V93.6406H185.625ZM187.477 106.578V106.086C187.477 104.227 187.742 102.516 188.273 100.953C188.805 99.375 189.586 98.0078 190.617 96.8516C191.648 95.6953 192.922 94.7969 194.438 94.1562C195.953 93.5 197.703 93.1719 199.688 93.1719C201.688 93.1719 203.445 93.5 204.961 94.1562C206.492 94.7969 207.773 95.6953 208.805 96.8516C209.836 98.0078 210.617 99.375 211.148 100.953C211.68 102.516 211.945 104.227 211.945 106.086V106.578C211.945 108.422 211.68 110.133 211.148 111.711C210.617 113.273 209.836 114.641 208.805 115.812C207.773 116.969 206.5 117.867 204.984 118.508C203.469 119.148 201.719 119.469 199.734 119.469C197.75 119.469 195.992 119.148 194.461 118.508C192.93 117.867 191.648 116.969 190.617 115.812C189.586 114.641 188.805 113.273 188.273 111.711C187.742 110.133 187.477 108.422 187.477 106.578ZM195.375 106.086V106.578C195.375 107.531 195.445 108.422 195.586 109.25C195.727 110.078 195.961 110.805 196.289 111.43C196.617 112.039 197.062 112.516 197.625 112.859C198.188 113.203 198.891 113.375 199.734 113.375C200.562 113.375 201.25 113.203 201.797 112.859C202.359 112.516 202.805 112.039 203.133 111.43C203.461 110.805 203.695 110.078 203.836 109.25C203.977 108.422 204.047 107.531 204.047 106.578V106.086C204.047 105.164 203.977 104.297 203.836 103.484C203.695 102.656 203.461 101.93 203.133 101.305C202.805 100.664 202.359 100.164 201.797 99.8047C201.234 99.4453 200.531 99.2656 199.688 99.2656C198.859 99.2656 198.164 99.4453 197.602 99.8047C197.055 100.164 196.617 100.664 196.289 101.305C195.961 101.93 195.727 102.656 195.586 103.484C195.445 104.297 195.375 105.164 195.375 106.086ZM223.43 99.9219V119H215.531V93.6406H222.914L223.43 99.9219ZM230.93 93.4531L230.789 100.789C230.477 100.758 230.055 100.719 229.523 100.672C228.992 100.625 228.547 100.602 228.188 100.602C227.266 100.602 226.469 100.711 225.797 100.93C225.141 101.133 224.594 101.445 224.156 101.867C223.734 102.273 223.422 102.789 223.219 103.414C223.031 104.039 222.945 104.766 222.961 105.594L221.531 104.656C221.531 102.953 221.695 101.406 222.023 100.016C222.367 98.6094 222.852 97.3984 223.477 96.3828C224.102 95.3516 224.859 94.5625 225.75 94.0156C226.641 93.4531 227.641 93.1719 228.75 93.1719C229.141 93.1719 229.523 93.1953 229.898 93.2422C230.289 93.2891 230.633 93.3594 230.93 93.4531ZM246.117 112.625V102.172C246.117 101.453 246.016 100.836 245.812 100.32C245.609 99.8047 245.289 99.4062 244.852 99.125C244.414 98.8281 243.828 98.6797 243.094 98.6797C242.5 98.6797 241.992 98.7812 241.57 98.9844C241.148 99.1875 240.828 99.4922 240.609 99.8984C240.391 100.305 240.281 100.82 240.281 101.445H232.383C232.383 100.273 232.641 99.1875 233.156 98.1875C233.688 97.1719 234.438 96.2891 235.406 95.5391C236.391 94.7891 237.562 94.2109 238.922 93.8047C240.297 93.3828 241.828 93.1719 243.516 93.1719C245.531 93.1719 247.328 93.5078 248.906 94.1797C250.5 94.8516 251.758 95.8594 252.68 97.2031C253.602 98.5312 254.062 100.203 254.062 102.219V112.602C254.062 114.258 254.156 115.516 254.344 116.375C254.531 117.219 254.797 117.961 255.141 118.602V119H247.219C246.844 118.219 246.562 117.266 246.375 116.141C246.203 115 246.117 113.828 246.117 112.625ZM247.078 103.508L247.125 107.727H243.633C242.898 107.727 242.273 107.828 241.758 108.031C241.258 108.234 240.852 108.516 240.539 108.875C240.242 109.219 240.023 109.609 239.883 110.047C239.758 110.484 239.695 110.945 239.695 111.43C239.695 111.898 239.805 112.32 240.023 112.695C240.258 113.055 240.57 113.336 240.961 113.539C241.352 113.742 241.789 113.844 242.273 113.844C243.148 113.844 243.891 113.68 244.5 113.352C245.125 113.008 245.602 112.594 245.93 112.109C246.258 111.625 246.422 111.172 246.422 110.75L248.156 113.984C247.844 114.609 247.484 115.242 247.078 115.883C246.688 116.523 246.195 117.117 245.602 117.664C245.023 118.195 244.312 118.633 243.469 118.977C242.625 119.305 241.602 119.469 240.398 119.469C238.836 119.469 237.398 119.148 236.086 118.508C234.789 117.867 233.75 116.977 232.969 115.836C232.188 114.68 231.797 113.352 231.797 111.852C231.797 110.539 232.031 109.367 232.5 108.336C232.984 107.305 233.711 106.43 234.68 105.711C235.648 104.992 236.883 104.445 238.383 104.07C239.883 103.695 241.648 103.508 243.68 103.508H247.078ZM266.203 99.0547V119H258.305V93.6406H265.711L266.203 99.0547ZM265.266 105.453L263.414 105.5C263.414 103.562 263.648 101.836 264.117 100.32C264.586 98.7891 265.25 97.4922 266.109 96.4297C266.969 95.3672 267.992 94.5625 269.18 94.0156C270.383 93.4531 271.719 93.1719 273.188 93.1719C274.359 93.1719 275.43 93.3438 276.398 93.6875C277.383 94.0312 278.227 94.5859 278.93 95.3516C279.648 96.1172 280.195 97.1328 280.57 98.3984C280.961 99.6484 281.156 101.195 281.156 103.039V119H273.211V103.016C273.211 102 273.07 101.227 272.789 100.695C272.508 100.148 272.102 99.7734 271.57 99.5703C271.039 99.3672 270.391 99.2656 269.625 99.2656C268.812 99.2656 268.125 99.4219 267.562 99.7344C267 100.047 266.547 100.484 266.203 101.047C265.875 101.594 265.633 102.242 265.477 102.992C265.336 103.742 265.266 104.562 265.266 105.453ZM296.25 113.375C296.984 113.375 297.609 113.242 298.125 112.977C298.656 112.695 299.055 112.305 299.32 111.805C299.602 111.289 299.734 110.672 299.719 109.953H307.148C307.164 111.859 306.695 113.531 305.742 114.969C304.805 116.391 303.523 117.5 301.898 118.297C300.289 119.078 298.469 119.469 296.438 119.469C294.453 119.469 292.719 119.148 291.234 118.508C289.75 117.852 288.508 116.945 287.508 115.789C286.523 114.617 285.781 113.25 285.281 111.688C284.797 110.125 284.555 108.43 284.555 106.602V106.062C284.555 104.234 284.797 102.539 285.281 100.977C285.781 99.3984 286.523 98.0312 287.508 96.875C288.508 95.7031 289.742 94.7969 291.211 94.1562C292.695 93.5 294.422 93.1719 296.391 93.1719C298.5 93.1719 300.359 93.5703 301.969 94.3672C303.594 95.1641 304.867 96.3203 305.789 97.8359C306.711 99.3516 307.164 101.188 307.148 103.344H299.719C299.734 102.578 299.617 101.891 299.367 101.281C299.117 100.672 298.727 100.188 298.195 99.8281C297.68 99.4531 297.016 99.2656 296.203 99.2656C295.391 99.2656 294.734 99.4453 294.234 99.8047C293.734 100.164 293.352 100.664 293.086 101.305C292.836 101.93 292.664 102.648 292.57 103.461C292.492 104.273 292.453 105.141 292.453 106.062V106.602C292.453 107.539 292.492 108.422 292.57 109.25C292.664 110.062 292.844 110.781 293.109 111.406C293.375 112.016 293.758 112.5 294.258 112.859C294.758 113.203 295.422 113.375 296.25 113.375ZM322.805 119.469C320.742 119.469 318.898 119.148 317.273 118.508C315.648 117.852 314.273 116.953 313.148 115.812C312.039 114.672 311.188 113.359 310.594 111.875C310.016 110.391 309.727 108.82 309.727 107.164V106.273C309.727 104.414 309.984 102.695 310.5 101.117C311.016 99.5234 311.781 98.1328 312.797 96.9453C313.812 95.7578 315.086 94.8359 316.617 94.1797C318.148 93.5078 319.93 93.1719 321.961 93.1719C323.758 93.1719 325.367 93.4609 326.789 94.0391C328.211 94.6172 329.414 95.4453 330.398 96.5234C331.398 97.6016 332.156 98.9062 332.672 100.438C333.203 101.969 333.469 103.688 333.469 105.594V108.805H312.75V103.859H325.758V103.25C325.773 102.406 325.625 101.688 325.312 101.094C325.016 100.5 324.578 100.047 324 99.7344C323.422 99.4219 322.719 99.2656 321.891 99.2656C321.031 99.2656 320.32 99.4531 319.758 99.8281C319.211 100.203 318.781 100.719 318.469 101.375C318.172 102.016 317.961 102.758 317.836 103.602C317.711 104.445 317.648 105.336 317.648 106.273V107.164C317.648 108.102 317.773 108.953 318.023 109.719C318.289 110.484 318.664 111.141 319.148 111.688C319.648 112.219 320.242 112.633 320.93 112.93C321.633 113.227 322.43 113.375 323.32 113.375C324.398 113.375 325.461 113.172 326.508 112.766C327.555 112.359 328.453 111.688 329.203 110.75L332.789 115.016C332.273 115.75 331.539 116.461 330.586 117.148C329.648 117.836 328.523 118.398 327.211 118.836C325.898 119.258 324.43 119.469 322.805 119.469Z" fill="black"/>
<path d="M1134 0H1348C1356.28 0 1363 6.71573 1363 15V148C1363 156.284 1356.28 163 1348 163H1134V0Z" fill="#FCC860"/>
<path d="M1228.5 41.5C1221.92 41.5 1216.5 46.9201 1216.5 53.5V109.5C1216.5 116.08 1221.92 121.5 1228.5 121.5H1280.5V113.5H1228.5C1226.24 113.5 1224.5 111.76 1224.5 109.5C1224.5 107.24 1226.24 105.5 1228.5 105.5H1280.5V97.5V41.5H1264.5H1240.5H1228.5ZM1228.5 49.5H1240.5V81.9922L1246.8 77.5781L1252.5 73.5703L1264.5 81.9922V49.5H1272.5V97.5H1228.5C1227.09 97.5 1225.76 97.7958 1224.5 98.25V53.5C1224.5 51.2399 1226.24 49.5 1228.5 49.5ZM1248.5 49.5H1256.5V66.6094L1252.5 63.8047L1248.5 66.6094V49.5Z" fill="white"/>
</svg>
